P2
# Simple pgm image example
15 15
255
0 0 0 0 0 0 0 0 0 0 0 0 0 0 0 
0 0 0 0 0 0 0 0 0 0 0 0 0 0 0 
0 0 0 7 7 7 7 7 7 7 7 7 0 0 0 
0 0 0 7 7 7 7 7 7 7 7 7 0 0 0 
0 0 0 7 7 7 7 7 7 7 7 7 0 0 0 
0 0 0 7 7 7 7 7 7 7 7 7 0 0 0 
0 0 0 7 7 7 7 7 7 7 7 7 0 0 0 
0 0 0 7 7 7 7 7 7 7 7 7 0 0 0 
0 0 0 7 7 7 7 7 7 7 7 7 0 0 0 
0 0 0 7 7 7 7 7 7 7 7 7 0 0 0 
0 0 0 7 7 7 7 7 7 7 7 7 0 0 0 
0 0 0 0 0 0 0 0 0 0 0 0 0 0 0 
0 0 0 0 0 0 0 0 0 0 0 0 0 0 0 
0 0 0 0 0 0 0 0 0 0 0 0 0 0 0 
0 0 0 0 0 0 0 0 0 0 0 0 0 0 0 
